<?xml version="1.0" standalone="no"?>
<!DOCTYPE svg PUBLIC "-//W3C//DTD SVG 20010904//EN"
 "http://www.w3.org/TR/2001/REC-SVG-20010904/DTD/svg10.dtd">
<svg version="1.0" xmlns="http://www.w3.org/2000/svg"
 width="1280.000000pt" height="1152.000000pt" viewBox="0 0 1280.000000 1152.000000"
 preserveAspectRatio="xMidYMid meet">
<metadata>
Created by potrace 1.15, written by Peter Selinger 2001-2017
</metadata>
<g transform="translate(0.000000,1152.000000) scale(0.100000,-0.100000)"
fill="#ff5722" stroke="none">
<path d="M4240 10790 l0 -730 -1595 0 -1595 0 0 -700 0 -700 -525 0 -525 0 0
-2165 0 -2165 1595 0 1595 0 0 -730 0 -730 -545 0 -545 0 0 -705 0 -705 -1050
0 -1050 0 0 -730 0 -730 1070 0 1070 0 0 705 0 705 1050 0 1050 0 0 730 0 730
545 0 545 0 0 -730 0 -730 1070 0 1070 0 0 730 0 730 525 0 525 0 0 -705 0
-705 1070 0 1070 0 0 -730 0 -730 1070 0 1070 0 0 730 0 730 -1070 0 -1070 0
0 730 0 730 -525 0 -525 0 0 705 0 705 1595 0 1595 0 0 2165 0 2165 -545 0
-545 0 0 700 0 700 -1575 0 -1575 0 0 730 0 730 -2160 0 -2160 0 0 -730z
m1050 -4345 l0 -705 -1050 0 -1050 0 0 698 c0 384 3 702 7 705 3 4 476 7 1050
7 l1043 0 0 -705z m4318 -2 l2 -703 -1050 0 -1050 0 0 705 0 705 1048 -2 1047
-3 3 -702z m-2138 -2843 l0 -730 -1070 0 -1070 0 0 730 0 730 1070 0 1070 0 0
-730z"/>
</g>
</svg>
